<svg width="42" height="39" viewBox="0 0 42 39" fill="none" xmlns="http://www.w3.org/2000/svg">
<path d="M24.8894 38.2051C24.7543 37.7325 24.5045 36.9289 23.4106 33.4582C22.3775 30.1698 21.5402 27.5026 21.0945 26.0643C20.9257 25.5241 20.6826 24.7678 20.5611 24.3762C20.4328 23.9846 20.1627 23.1203 19.9534 22.4518C18.9473 19.2444 18.0087 16.2733 17.9074 15.9695C17.7994 15.6453 17.7926 16.172 17.7588 27.0569L17.7251 38.4887L16.1045 37.4624C15.2132 36.9019 14.3556 36.3685 14.2003 36.2672L13.91 36.0916V19.6833C13.91 10.6621 13.8897 3.2074 13.8695 3.13312C13.8357 3.01158 14.0585 2.81576 15.3955 1.79614C16.2598 1.13441 17.0026 0.580707 17.0498 0.560449C17.1106 0.540192 17.1646 0.61447 17.2051 0.756271C17.2389 0.877814 17.9412 3.10611 18.7582 5.70579C20.7232 11.945 22.391 17.2592 22.5936 17.9141C22.6813 18.1977 22.8299 18.6704 22.9177 18.9608C23.1945 19.8588 24.518 24.0521 24.6733 24.5113L24.8151 24.9502L24.8489 12.4785L24.8826 0L26.7936 1.46527L28.6977 2.93055V19.6563C28.6977 32.9518 28.6775 36.3955 28.6167 36.4495C28.5222 36.5238 25.0514 38.5563 25.0177 38.5563C25.0042 38.5563 24.9502 38.3942 24.8894 38.2051Z" fill="black"/>
<path d="M31.2434 19.9466C31.2569 11.7154 31.2704 4.96977 31.2772 4.95627C31.2907 4.94952 32.1212 5.56399 33.1206 6.32701C34.1267 7.09679 35.4907 8.13666 36.1592 8.64309C36.8277 9.14952 37.692 9.8045 38.0836 10.1016C40.1633 11.6952 41.1965 12.4852 41.5746 12.7553L41.9932 13.0659L42 15.1051V17.1376L40.8926 17.9749C39.6974 18.873 39.6772 18.8932 39.7582 19.4605C39.7852 19.69 39.8797 19.7846 40.8926 20.5949L42 21.4794V25.0717V28.664L40.528 29.5215C39.7244 29.9875 37.3138 31.3987 35.1801 32.6412C33.0463 33.8904 31.2839 34.91 31.2637 34.91C31.2434 34.91 31.2367 28.1778 31.2434 19.9466ZM36.1051 27.0569C36.5778 26.7801 37.2598 26.3884 37.6109 26.1791L38.2524 25.8077L38.2727 24.356L38.2862 22.9109L38.1106 22.7894C38.0161 22.7286 37.5839 22.4045 37.1585 22.0736L36.382 21.4727H35.7135H35.045V24.5518C35.045 27.1987 35.0585 27.6241 35.1395 27.5971C35.1936 27.5769 35.6257 27.3338 36.1051 27.0569ZM37.5164 16.5907C38.2389 16.037 38.2524 16.0235 38.2727 15.7264C38.2862 15.4833 38.2659 15.3955 38.1376 15.2807C37.908 15.0781 34.9842 12.8296 34.9437 12.8296C34.8897 12.8296 34.9032 17.0566 34.9572 17.1039C34.9775 17.1309 35.4029 17.1511 35.8891 17.1511H36.7804L37.5164 16.5907Z" fill="black"/>
<path d="M9.71672 33.4785C8.88617 32.9585 6.96174 31.7498 5.43569 30.791C3.90965 29.8389 2.31608 28.8328 1.89068 28.5627C1.46527 28.2926 0.864308 27.9145 0.560449 27.7254L0 27.381L0.0202564 20.426L0.0337621 13.4778L1.28971 12.5257C1.97846 12.0058 2.80225 11.3778 3.11961 11.1212C3.44373 10.8714 3.73408 10.6688 3.7746 10.6688C3.82862 10.6688 3.85563 12.8296 3.86238 17.8736L3.88264 25.0717L5.3344 25.9833C6.13119 26.483 6.92122 26.9759 7.09003 27.0839L7.39389 27.273L7.41415 17.5563L7.42765 7.8463L9.26431 6.4418C10.2704 5.67202 11.155 5.03054 11.2158 5.01704C11.3305 4.98328 11.3373 5.62476 11.3441 19.6698C11.3441 27.7524 11.3238 34.3765 11.29 34.3968C11.2563 34.417 10.554 34.0051 9.71672 33.4785Z" fill="black"/>
</svg>
